<?xml version="1.0" standalone="no"?>
<!DOCTYPE svg PUBLIC "-//W3C//DTD SVG 20010904//EN"
 "http://www.w3.org/TR/2001/REC-SVG-20010904/DTD/svg10.dtd">
<svg version="1.0" xmlns="http://www.w3.org/2000/svg"
 width="804.000000pt" height="804.000000pt" viewBox="0 0 804.000000 804.000000"
 preserveAspectRatio="xMidYMid meet">
<metadata>
Created by potrace 1.11, written by Peter Selinger 2001-2013
</metadata>
<g transform="translate(0.000000,804.000000) scale(0.100000,-0.100000)"
fill="#000000" stroke="none">
<path d="M607 7974 c-1 -1 -31 -4 -67 -7 -83 -7 -158 -30 -240 -73 -105 -56
-180 -136 -234 -250 -69 -144 -64 79 -61 -2999 1 -1534 5 -2803 9 -2820 12
-53 73 -168 120 -227 96 -120 264 -230 396 -260 42 -9 408 -12 1563 -12 l1507
-1 86 -265 c47 -146 96 -296 109 -335 13 -38 63 -191 110 -340 48 -148 92
-285 98 -302 l11 -33 701 -1 c1667 -1 2752 1 2794 7 205 25 382 145 465 316
14 29 35 89 46 132 20 78 20 106 19 2890 0 2748 -1 2813 -20 2885 -66 254
-249 406 -524 436 -16 1 -780 3 -1696 4 l-1666 1 -12 58 c-7 31 -17 68 -22 82
-5 14 -20 75 -34 135 -14 61 -27 119 -30 130 -2 11 -37 148 -76 305 -39 157
-72 293 -74 304 -3 10 -16 67 -31 127 l-27 109 -51 1 c-130 1 -3168 4 -3169 3z"/>
</g>
</svg>
